<svg width="118" height="33" viewBox="0 0 118 33" fill="none" xmlns="http://www.w3.org/2000/svg">
<path d="M0 2.5C0 1.39543 0.895431 0.5 2 0.5H116C117.105 0.5 118 1.39543 118 2.5V30.5C118 31.6046 117.105 32.5 116 32.5H2C0.895433 32.5 0 31.6046 0 30.5V2.5Z" fill="white"/>
<path d="M24 9.5V23.5L35 16.5L24 9.5Z" fill="black"/>
<path d="M45.2174 12.0704H47.9725C48.3459 12.0704 48.708 12.1115 49.059 12.1936C49.4099 12.2683 49.7198 12.3952 49.9885 12.5744C50.2648 12.7536 50.4851 12.9888 50.6494 13.28C50.8136 13.5712 50.8958 13.9259 50.8958 14.344C50.8958 14.9189 50.7315 15.3893 50.4029 15.7552C50.0819 16.1136 49.6414 16.3563 49.0814 16.4832L51.1982 20H49.4958L47.6589 16.64H46.6286V20H45.2174V12.0704ZM47.7822 15.4864C47.9838 15.4864 48.1854 15.4715 48.387 15.4416C48.5886 15.4117 48.7678 15.3557 48.9246 15.2736C49.0888 15.1915 49.2232 15.0757 49.3278 14.9264C49.4323 14.7696 49.4846 14.5717 49.4846 14.3328C49.4846 14.1163 49.436 13.9408 49.339 13.8064C49.2419 13.6645 49.1187 13.5525 48.9694 13.4704C48.82 13.3883 48.6483 13.3323 48.4542 13.3024C48.2675 13.2725 48.0846 13.2576 47.9054 13.2576H46.6286V15.4864H47.7822ZM55.8483 16.7744C55.8483 16.6027 55.8221 16.4384 55.7699 16.2816C55.7251 16.1248 55.6504 15.9867 55.5459 15.8672C55.4413 15.7477 55.3069 15.6544 55.1426 15.5872C54.9858 15.5125 54.7992 15.4752 54.5827 15.4752C54.1795 15.4752 53.836 15.5984 53.5523 15.8448C53.276 16.0837 53.1229 16.3936 53.093 16.7744H55.8483ZM57.1923 17.3792C57.1923 17.4389 57.1923 17.4987 57.1923 17.5584C57.1923 17.6181 57.1885 17.6779 57.1811 17.7376H53.093C53.108 17.9317 53.1565 18.1109 53.2386 18.2752C53.3282 18.432 53.444 18.5701 53.5858 18.6896C53.7277 18.8016 53.8883 18.8912 54.0675 18.9584C54.2466 19.0256 54.4333 19.0592 54.6275 19.0592C54.9635 19.0592 55.2472 18.9995 55.4786 18.88C55.7101 18.7531 55.9005 18.5813 56.0499 18.3648L56.9458 19.0816C56.4157 19.7984 55.6466 20.1568 54.6387 20.1568C54.2205 20.1568 53.836 20.0933 53.4851 19.9664C53.1341 19.832 52.828 19.6453 52.5666 19.4064C52.3128 19.1675 52.1112 18.8763 51.9618 18.5328C51.82 18.1819 51.749 17.7861 51.749 17.3456C51.749 16.9125 51.82 16.5205 51.9618 16.1696C52.1112 15.8112 52.3128 15.5088 52.5666 15.2624C52.8205 15.0085 53.1192 14.8144 53.4626 14.68C53.8136 14.5381 54.1907 14.4672 54.5938 14.4672C54.9672 14.4672 55.3107 14.5307 55.6243 14.6576C55.9453 14.7771 56.2216 14.96 56.4531 15.2064C56.6845 15.4453 56.8637 15.7477 56.9907 16.1136C57.1251 16.472 57.1923 16.8939 57.1923 17.3792ZM59.7819 14.624V15.3744H59.8155C59.8827 15.2699 59.9686 15.1653 60.0731 15.0608C60.1851 14.9488 60.3195 14.8517 60.4763 14.7696C60.6331 14.68 60.8086 14.6091 61.0027 14.5568C61.2043 14.4971 61.4283 14.4672 61.6747 14.4672C62.0555 14.4672 62.4064 14.5419 62.7275 14.6912C63.0486 14.8331 63.3248 15.0309 63.5563 15.2848C63.7878 15.5387 63.967 15.8373 64.0939 16.1808C64.2208 16.5243 64.2843 16.8939 64.2843 17.2896C64.2843 17.6853 64.2208 18.0587 64.0939 18.4096C63.9744 18.7531 63.799 19.0555 63.5675 19.3168C63.3435 19.5707 63.0672 19.776 62.7387 19.9328C62.4176 20.0821 62.0518 20.1568 61.6411 20.1568C61.2603 20.1568 60.9094 20.0784 60.5883 19.9216C60.2747 19.7648 60.032 19.552 59.8603 19.2832H59.8379V22.688H58.4939V14.624H59.7819ZM62.9179 17.2896C62.9179 17.0805 62.8843 16.8752 62.8171 16.6736C62.7574 16.4645 62.664 16.2779 62.5371 16.1136C62.4102 15.9493 62.2496 15.8187 62.0555 15.7216C61.8614 15.6171 61.6336 15.5648 61.3723 15.5648C61.1259 15.5648 60.9056 15.6171 60.7115 15.7216C60.5174 15.8261 60.3494 15.9605 60.2075 16.1248C60.0731 16.2891 59.9686 16.4757 59.8939 16.6848C59.8267 16.8939 59.7931 17.1029 59.7931 17.312C59.7931 17.5211 59.8267 17.7301 59.8939 17.9392C59.9686 18.1408 60.0731 18.3237 60.2075 18.488C60.3494 18.6523 60.5174 18.7867 60.7115 18.8912C60.9056 18.9883 61.1259 19.0368 61.3723 19.0368C61.6336 19.0368 61.8614 18.9845 62.0555 18.88C62.2496 18.7755 62.4102 18.6411 62.5371 18.4768C62.664 18.3125 62.7574 18.1259 62.8171 17.9168C62.8843 17.7077 62.9179 17.4987 62.9179 17.2896ZM65.5814 14.624H66.8694V15.52H66.8918C67.0411 15.2064 67.2502 14.9525 67.519 14.7584C67.7878 14.5643 68.1014 14.4672 68.4598 14.4672C68.5121 14.4672 68.5681 14.4709 68.6278 14.4784C68.6875 14.4784 68.7398 14.4859 68.7846 14.5008V15.7328C68.695 15.7104 68.6166 15.6955 68.5494 15.688C68.4897 15.6805 68.4299 15.6768 68.3702 15.6768C68.0641 15.6768 67.8177 15.7328 67.631 15.8448C67.4443 15.9568 67.2987 16.0912 67.1942 16.248C67.0897 16.4048 67.0187 16.5653 66.9814 16.7296C66.9441 16.8939 66.9254 17.0245 66.9254 17.1216V20H65.5814V14.624ZM69.1506 17.2896C69.1506 16.864 69.2253 16.4795 69.3746 16.136C69.5314 15.7851 69.7405 15.4864 70.0018 15.24C70.2631 14.9936 70.573 14.8032 70.9314 14.6688C71.2898 14.5344 71.6706 14.4672 72.0738 14.4672C72.477 14.4672 72.8578 14.5344 73.2162 14.6688C73.5746 14.8032 73.8845 14.9936 74.1458 15.24C74.4071 15.4864 74.6125 15.7851 74.7618 16.136C74.9186 16.4795 74.997 16.864 74.997 17.2896C74.997 17.7152 74.9186 18.1035 74.7618 18.4544C74.6125 18.8053 74.4071 19.1077 74.1458 19.3616C73.8845 19.608 73.5746 19.8021 73.2162 19.944C72.8578 20.0859 72.477 20.1568 72.0738 20.1568C71.6706 20.1568 71.2898 20.0859 70.9314 19.944C70.573 19.8021 70.2631 19.608 70.0018 19.3616C69.7405 19.1077 69.5314 18.8053 69.3746 18.4544C69.2253 18.1035 69.1506 17.7152 69.1506 17.2896ZM70.517 17.2896C70.517 17.4987 70.5469 17.7077 70.6066 17.9168C70.6738 18.1259 70.7709 18.3125 70.8978 18.4768C71.0247 18.6411 71.1853 18.7755 71.3794 18.88C71.5735 18.9845 71.805 19.0368 72.0738 19.0368C72.3426 19.0368 72.5741 18.9845 72.7682 18.88C72.9623 18.7755 73.1229 18.6411 73.2498 18.4768C73.3767 18.3125 73.4701 18.1259 73.5298 17.9168C73.597 17.7077 73.6306 17.4987 73.6306 17.2896C73.6306 17.0805 73.597 16.8752 73.5298 16.6736C73.4701 16.4645 73.3767 16.2779 73.2498 16.1136C73.1229 15.9493 72.9623 15.8187 72.7682 15.7216C72.5741 15.6171 72.3426 15.5648 72.0738 15.5648C71.805 15.5648 71.5735 15.6171 71.3794 15.7216C71.1853 15.8187 71.0247 15.9493 70.8978 16.1136C70.7709 16.2779 70.6738 16.4645 70.6066 16.6736C70.5469 16.8752 70.517 17.0805 70.517 17.2896ZM81.7657 20H80.4889V19.1936H80.4665C80.2799 19.5072 80.0185 19.7461 79.6825 19.9104C79.354 20.0747 78.9993 20.1568 78.6185 20.1568C78.2079 20.1568 77.8383 20.0821 77.5097 19.9328C77.1887 19.776 76.9124 19.5707 76.6809 19.3168C76.4569 19.0555 76.2815 18.7531 76.1545 18.4096C76.0351 18.0587 75.9753 17.6853 75.9753 17.2896C75.9753 16.8939 76.0388 16.5243 76.1657 16.1808C76.2927 15.8373 76.4719 15.5387 76.7033 15.2848C76.9348 15.0309 77.2111 14.8331 77.5321 14.6912C77.8532 14.5419 78.2041 14.4672 78.5849 14.4672C78.8313 14.4672 79.0516 14.4971 79.2457 14.5568C79.4399 14.6091 79.6079 14.6763 79.7497 14.7584C79.8991 14.8405 80.026 14.9301 80.1305 15.0272C80.2351 15.1243 80.3209 15.2176 80.3881 15.3072H80.4217V11.5328H81.7657V20ZM77.3417 17.2896C77.3417 17.4987 77.3716 17.7077 77.4313 17.9168C77.4985 18.1259 77.5956 18.3125 77.7225 18.4768C77.8495 18.6411 78.01 18.7755 78.2041 18.88C78.3983 18.9845 78.626 19.0368 78.8873 19.0368C79.1337 19.0368 79.354 18.9883 79.5481 18.8912C79.7423 18.7867 79.9065 18.6523 80.0409 18.488C80.1828 18.3237 80.2873 18.1408 80.3545 17.9392C80.4292 17.7301 80.4665 17.5211 80.4665 17.312C80.4665 17.1029 80.4292 16.8939 80.3545 16.6848C80.2873 16.4757 80.1828 16.2891 80.0409 16.1248C79.9065 15.9605 79.7423 15.8261 79.5481 15.7216C79.354 15.6171 79.1337 15.5648 78.8873 15.5648C78.626 15.5648 78.3983 15.6171 78.2041 15.7216C78.01 15.8187 77.8495 15.9493 77.7225 16.1136C77.5956 16.2779 77.4985 16.4645 77.4313 16.6736C77.3716 16.8752 77.3417 17.0805 77.3417 17.2896ZM88.3042 20H87.0274V19.1376H87.005C86.8855 19.4064 86.6765 19.6453 86.3778 19.8544C86.0866 20.056 85.7394 20.1568 85.3362 20.1568C84.9853 20.1568 84.6829 20.0971 84.429 19.9776C84.1826 19.8507 83.9773 19.6864 83.813 19.4848C83.6562 19.2832 83.5405 19.0517 83.4658 18.7904C83.3911 18.5291 83.3538 18.2603 83.3538 17.984V14.624H84.6978V17.6032C84.6978 17.76 84.709 17.9243 84.7314 18.096C84.7538 18.2677 84.8023 18.4245 84.877 18.5664C84.9517 18.7008 85.0525 18.8128 85.1794 18.9024C85.3138 18.992 85.4893 19.0368 85.7058 19.0368C85.9149 19.0368 86.0978 18.9957 86.2546 18.9136C86.4189 18.824 86.5495 18.712 86.6466 18.5776C86.7511 18.4432 86.8295 18.2901 86.8818 18.1184C86.9341 17.9392 86.9602 17.76 86.9602 17.5808V14.624H88.3042V20ZM93.5909 16.1136C93.4864 15.9643 93.3296 15.8411 93.1205 15.744C92.9115 15.6395 92.6987 15.5872 92.4821 15.5872C92.2357 15.5872 92.0192 15.6395 91.8325 15.744C91.6459 15.8411 91.4891 15.9717 91.3621 16.136C91.2427 16.3003 91.1531 16.4869 91.0933 16.696C91.0336 16.8976 91.0037 17.1029 91.0037 17.312C91.0037 17.5211 91.0336 17.7301 91.0933 17.9392C91.1605 18.1408 91.2576 18.3237 91.3845 18.488C91.5115 18.6523 91.6683 18.7867 91.8549 18.8912C92.0491 18.9883 92.2731 19.0368 92.5269 19.0368C92.736 19.0368 92.9451 18.9957 93.1541 18.9136C93.3632 18.8315 93.5312 18.712 93.6581 18.5552L94.4981 19.4064C94.2741 19.6453 93.9867 19.832 93.6357 19.9664C93.2923 20.0933 92.9189 20.1568 92.5157 20.1568C92.12 20.1568 91.7429 20.0933 91.3845 19.9664C91.0336 19.8395 90.7237 19.6528 90.4549 19.4064C90.1936 19.16 89.9845 18.8613 89.8277 18.5104C89.6784 18.1595 89.6037 17.76 89.6037 17.312C89.6037 16.8789 89.6784 16.4869 89.8277 16.136C89.9845 15.7851 90.1936 15.4864 90.4549 15.24C90.7163 14.9936 91.0187 14.8032 91.3621 14.6688C91.7131 14.5344 92.0864 14.4672 92.4821 14.4672C92.8779 14.4672 93.2587 14.5419 93.6245 14.6912C93.9979 14.8405 94.2928 15.0459 94.5093 15.3072L93.5909 16.1136ZM95.4085 14.624H96.7525V20H95.4085V14.624ZM95.2181 12.7984C95.2181 12.5819 95.2965 12.3952 95.4533 12.2384C95.6176 12.0741 95.8229 11.992 96.0693 11.992C96.3157 11.992 96.521 12.0704 96.6853 12.2272C96.857 12.3765 96.9429 12.5669 96.9429 12.7984C96.9429 13.0299 96.857 13.224 96.6853 13.3808C96.521 13.5301 96.3157 13.6048 96.0693 13.6048C95.8229 13.6048 95.6176 13.5264 95.4533 13.3696C95.2965 13.2053 95.2181 13.0149 95.2181 12.7984ZM98.383 14.624H99.671V15.52H99.6934C99.8427 15.2064 100.052 14.9525 100.321 14.7584C100.589 14.5643 100.903 14.4672 101.261 14.4672C101.314 14.4672 101.37 14.4709 101.429 14.4784C101.489 14.4784 101.541 14.4859 101.586 14.5008V15.7328C101.497 15.7104 101.418 15.6955 101.351 15.688C101.291 15.6805 101.231 15.6768 101.172 15.6768C100.866 15.6768 100.619 15.7328 100.433 15.8448C100.246 15.9568 100.1 16.0912 99.9958 16.248C99.8912 16.4048 99.8203 16.5653 99.783 16.7296C99.7456 16.8939 99.727 17.0245 99.727 17.1216V20H98.383V14.624Z" fill="black"/>
</svg>
