<svg width="24" height="43" viewBox="0 0 24 43" fill="none" xmlns="http://www.w3.org/2000/svg">
<path d="M12 2C6.489 2 2 6.489 2 12C2 17.511 6.489 22 12 22C17.511 22 22 17.511 22 12C22 6.489 17.511 2 12 2ZM12 4C16.4301 4 20 7.56988 20 12C20 16.4301 16.4301 20 12 20C7.56988 20 4 16.4301 4 12C4 7.56988 7.56988 4 12 4ZM11 7V9H13V7H11ZM11 11V17H13V11H11Z" fill="white"/>
<path d="M2.3736 31.0704H3.7848V39H2.3736V31.0704ZM5.46734 33.624H6.74414V34.4864H6.76654C6.886 34.2176 7.09134 33.9824 7.38254 33.7808C7.6812 33.5717 8.03214 33.4672 8.43534 33.4672C8.78627 33.4672 9.08494 33.5307 9.33134 33.6576C9.5852 33.7771 9.79054 33.9376 9.94734 34.1392C10.1116 34.3408 10.2311 34.5723 10.3057 34.8336C10.3804 35.0949 10.4177 35.3637 10.4177 35.64V39H9.07374V36.0208C9.07374 35.864 9.06254 35.6997 9.04014 35.528C9.01774 35.3563 8.9692 35.2032 8.89454 35.0688C8.81987 34.9269 8.71534 34.8112 8.58094 34.7216C8.454 34.632 8.28227 34.5872 8.06574 34.5872C7.8492 34.5872 7.66254 34.632 7.50574 34.7216C7.34894 34.8037 7.21827 34.912 7.11374 35.0464C7.01667 35.1808 6.942 35.3376 6.88974 35.5168C6.83747 35.6885 6.81134 35.864 6.81134 36.0432V39H5.46734V33.624ZM12.1989 34.6992H11.1797V33.624H12.1989V32.8288C12.1989 32.5077 12.2325 32.2016 12.2997 31.9104C12.3744 31.6117 12.4938 31.3504 12.6581 31.1264C12.8298 30.9024 13.0538 30.7269 13.3301 30.6C13.6064 30.4656 13.9536 30.3984 14.3717 30.3984C14.521 30.3984 14.6442 30.4059 14.7413 30.4208C14.8458 30.4283 14.9504 30.4469 15.0549 30.4768L14.9653 31.6192C14.8906 31.5968 14.8085 31.5781 14.7189 31.5632C14.6368 31.5483 14.5472 31.5408 14.4501 31.5408C14.256 31.5408 14.0992 31.5781 13.9797 31.6528C13.8602 31.7275 13.7669 31.8245 13.6997 31.944C13.64 32.0635 13.5989 32.1941 13.5765 32.336C13.5541 32.4779 13.5429 32.616 13.5429 32.7504V33.624H14.7861V34.6992H13.5429V39H12.1989V34.6992ZM15.3037 36.2896C15.3037 35.864 15.3784 35.4795 15.5277 35.136C15.6845 34.7851 15.8936 34.4864 16.1549 34.24C16.4163 33.9936 16.7261 33.8032 17.0845 33.6688C17.4429 33.5344 17.8237 33.4672 18.2269 33.4672C18.6301 33.4672 19.0109 33.5344 19.3693 33.6688C19.7277 33.8032 20.0376 33.9936 20.2989 34.24C20.5603 34.4864 20.7656 34.7851 20.9149 35.136C21.0717 35.4795 21.1501 35.864 21.1501 36.2896C21.1501 36.7152 21.0717 37.1035 20.9149 37.4544C20.7656 37.8053 20.5603 38.1077 20.2989 38.3616C20.0376 38.608 19.7277 38.8021 19.3693 38.944C19.0109 39.0859 18.6301 39.1568 18.2269 39.1568C17.8237 39.1568 17.4429 39.0859 17.0845 38.944C16.7261 38.8021 16.4163 38.608 16.1549 38.3616C15.8936 38.1077 15.6845 37.8053 15.5277 37.4544C15.3784 37.1035 15.3037 36.7152 15.3037 36.2896ZM16.6701 36.2896C16.6701 36.4987 16.7 36.7077 16.7597 36.9168C16.8269 37.1259 16.924 37.3125 17.0509 37.4768C17.1779 37.6411 17.3384 37.7755 17.5325 37.88C17.7267 37.9845 17.9581 38.0368 18.2269 38.0368C18.4957 38.0368 18.7272 37.9845 18.9213 37.88C19.1155 37.7755 19.276 37.6411 19.4029 37.4768C19.5299 37.3125 19.6232 37.1259 19.6829 36.9168C19.7501 36.7077 19.7837 36.4987 19.7837 36.2896C19.7837 36.0805 19.7501 35.8752 19.6829 35.6736C19.6232 35.4645 19.5299 35.2779 19.4029 35.1136C19.276 34.9493 19.1155 34.8187 18.9213 34.7216C18.7272 34.6171 18.4957 34.5648 18.2269 34.5648C17.9581 34.5648 17.7267 34.6171 17.5325 34.7216C17.3384 34.8187 17.1779 34.9493 17.0509 35.1136C16.924 35.2779 16.8269 35.4645 16.7597 35.6736C16.7 35.8752 16.6701 36.0805 16.6701 36.2896Z" fill="white"/>
</svg>
