<svg width="38" height="43" viewBox="0 0 38 43" fill="none" xmlns="http://www.w3.org/2000/svg">
<path d="M18 3V11H10V13H18V21H20V13H28V11H20V3H18Z" fill="white"/>
<path d="M0.8736 31.0704H3.08L5.1408 36.704H5.1744L7.2128 31.0704H9.4304V39H8.0304V32.6272H8.008L5.6 39H4.6144L2.24 32.6272H2.2176V39H0.8736V31.0704ZM11.1319 33.624H12.4759V39H11.1319V33.624ZM10.9415 31.7984C10.9415 31.5819 11.0199 31.3952 11.1767 31.2384C11.341 31.0741 11.5463 30.992 11.7927 30.992C12.0391 30.992 12.2445 31.0704 12.4087 31.2272C12.5805 31.3765 12.6663 31.5669 12.6663 31.7984C12.6663 32.0299 12.5805 32.224 12.4087 32.3808C12.2445 32.5301 12.0391 32.6048 11.7927 32.6048C11.5463 32.6048 11.341 32.5264 11.1767 32.3696C11.0199 32.2053 10.9415 32.0149 10.9415 31.7984ZM16.9288 30.5328H18.2728V39H16.9288V30.5328ZM19.9257 33.624H21.2697V39H19.9257V33.624ZM19.7353 31.7984C19.7353 31.5819 19.8137 31.3952 19.9705 31.2384C20.1347 31.0741 20.3401 30.992 20.5865 30.992C20.8329 30.992 21.0382 31.0704 21.2025 31.2272C21.3742 31.3765 21.4601 31.5669 21.4601 31.7984C21.4601 32.0299 21.3742 32.224 21.2025 32.3808C21.0382 32.5301 20.8329 32.6048 20.5865 32.6048C20.3401 32.6048 20.1347 32.5264 19.9705 32.3696C19.8137 32.2053 19.7353 32.0149 19.7353 31.7984ZM25.8458 35.0576C25.7263 34.9008 25.562 34.7664 25.353 34.6544C25.1439 34.5349 24.9162 34.4752 24.6698 34.4752C24.4532 34.4752 24.2554 34.52 24.0761 34.6096C23.897 34.6992 23.8074 34.8485 23.8074 35.0576C23.8074 35.2667 23.9044 35.416 24.0986 35.5056C24.3002 35.5877 24.5914 35.6736 24.9721 35.7632C25.1738 35.808 25.3754 35.8677 25.577 35.9424C25.786 36.0171 25.9727 36.1179 26.137 36.2448C26.3087 36.3643 26.4468 36.5173 26.5514 36.704C26.6559 36.8832 26.7082 37.1035 26.7082 37.3648C26.7082 37.6933 26.6447 37.9733 26.5178 38.2048C26.3983 38.4288 26.234 38.6117 26.025 38.7536C25.8233 38.8955 25.5844 38.9963 25.3081 39.056C25.0394 39.1232 24.7594 39.1568 24.4682 39.1568C24.05 39.1568 23.6431 39.0821 23.2474 38.9328C22.8516 38.776 22.5231 38.5557 22.2618 38.272L23.1466 37.4432C23.2959 37.6373 23.49 37.7979 23.729 37.9248C23.9679 38.0517 24.233 38.1152 24.5242 38.1152C24.6212 38.1152 24.7183 38.104 24.8154 38.0816C24.9199 38.0592 25.0132 38.0256 25.0954 37.9808C25.1849 37.9285 25.2559 37.8613 25.3081 37.7792C25.3604 37.6971 25.3865 37.5963 25.3865 37.4768C25.3865 37.2528 25.282 37.0923 25.0729 36.9952C24.8714 36.8981 24.5652 36.8011 24.1546 36.704C23.953 36.6592 23.7551 36.6032 23.561 36.536C23.3743 36.4613 23.2063 36.368 23.057 36.256C22.9076 36.1365 22.7881 35.9909 22.6986 35.8192C22.609 35.6475 22.5642 35.4347 22.5642 35.1808C22.5642 34.8821 22.6239 34.6245 22.7434 34.408C22.8703 34.1915 23.0346 34.016 23.2362 33.8816C23.4378 33.7397 23.6655 33.6352 23.9193 33.568C24.1732 33.5008 24.4346 33.4672 24.7034 33.4672C25.0916 33.4672 25.4687 33.5344 25.8346 33.6688C26.2079 33.8032 26.5028 34.0085 26.7194 34.2848L25.8458 35.0576ZM27.1039 34.6992V33.624H28.0447V32.0672H29.3663V33.624H30.7103V34.6992H29.3663V37.1968C29.3663 37.4357 29.4074 37.6336 29.4895 37.7904C29.5791 37.9472 29.7732 38.0256 30.0719 38.0256C30.1615 38.0256 30.2586 38.0181 30.3631 38.0032C30.4676 37.9808 30.561 37.9509 30.6431 37.9136L30.6879 38.9664C30.5684 39.0112 30.4266 39.0448 30.2623 39.0672C30.098 39.0971 29.9412 39.112 29.7919 39.112C29.4335 39.112 29.1423 39.0635 28.9183 38.9664C28.6943 38.8619 28.5151 38.7237 28.3807 38.552C28.2538 38.3728 28.1642 38.1712 28.1119 37.9472C28.0671 37.7157 28.0447 37.4693 28.0447 37.208V34.6992H27.1039ZM35.0206 38.3168H34.987C34.8526 38.5557 34.636 38.7536 34.3374 38.9104C34.0387 39.0597 33.699 39.1344 33.3182 39.1344C33.1016 39.1344 32.8739 39.1045 32.635 39.0448C32.4035 38.9925 32.187 38.9029 31.9854 38.776C31.7912 38.6416 31.627 38.4699 31.4926 38.2608C31.3656 38.0443 31.3022 37.7792 31.3022 37.4656C31.3022 37.0624 31.4142 36.7413 31.6382 36.5024C31.8696 36.2635 32.1646 36.0805 32.523 35.9536C32.8814 35.8267 33.2771 35.7445 33.7102 35.7072C34.1507 35.6624 34.58 35.64 34.9982 35.64V35.5056C34.9982 35.1696 34.875 34.9232 34.6286 34.7664C34.3896 34.6021 34.1022 34.52 33.7662 34.52C33.4824 34.52 33.2099 34.5797 32.9486 34.6992C32.6872 34.8187 32.4707 34.9643 32.299 35.136L31.6046 34.3184C31.9107 34.0347 32.2616 33.8219 32.6574 33.68C33.0606 33.5381 33.4675 33.4672 33.8782 33.4672C34.356 33.4672 34.748 33.5344 35.0542 33.6688C35.3678 33.8032 35.6142 33.9787 35.7934 34.1952C35.9726 34.4117 36.0958 34.6544 36.163 34.9232C36.2376 35.192 36.275 35.4608 36.275 35.7296V39H35.0206V38.3168ZM34.9982 36.5472H34.6958C34.4792 36.5472 34.2515 36.5584 34.0126 36.5808C33.7736 36.5957 33.5534 36.6368 33.3518 36.704C33.1502 36.7637 32.9822 36.8533 32.8478 36.9728C32.7134 37.0848 32.6462 37.2416 32.6462 37.4432C32.6462 37.5701 32.6723 37.6784 32.7246 37.768C32.7843 37.8501 32.859 37.9173 32.9486 37.9696C33.0382 38.0219 33.139 38.0592 33.251 38.0816C33.363 38.104 33.475 38.1152 33.587 38.1152C34.0499 38.1152 34.4008 37.992 34.6398 37.7456C34.8787 37.4992 34.9982 37.1632 34.9982 36.7376V36.5472Z" fill="white"/>
</svg>
