<svg width="54" height="39" viewBox="0 0 54 39" fill="none" xmlns="http://www.w3.org/2000/svg">
<path d="M27 2C21.489 2 17 6.489 17 12C17 17.511 21.489 22 27 22C32.511 22 37 17.511 37 12C37 6.489 32.511 2 27 2ZM27 4C31.4301 4 35 7.56988 35 12C35 16.4301 31.4301 20 27 20C22.5699 20 19 16.4301 19 12C19 7.56988 22.5699 4 27 4ZM26 7V13H23L27 17L31 13H28V7H26Z" fill="#686868"/>
<path d="M1.0528 27.0704H3.6848C4.1776 27.0704 4.6704 27.1525 5.1632 27.3168C5.66347 27.4811 6.11147 27.7312 6.5072 28.0672C6.9104 28.3957 7.2352 28.8101 7.4816 29.3104C7.728 29.8032 7.8512 30.3781 7.8512 31.0352C7.8512 31.6997 7.728 32.2784 7.4816 32.7712C7.2352 33.264 6.9104 33.6784 6.5072 34.0144C6.11147 34.3429 5.66347 34.5893 5.1632 34.7536C4.6704 34.9179 4.1776 35 3.6848 35H1.0528V27.0704ZM1.8592 34.2832H3.4608C4.05813 34.2832 4.57707 34.1899 5.0176 34.0032C5.4656 33.8165 5.8352 33.5739 6.1264 33.2752C6.4176 32.9691 6.63413 32.6219 6.776 32.2336C6.92533 31.8453 7 31.4459 7 31.0352C7 30.6245 6.92533 30.2251 6.776 29.8368C6.63413 29.4485 6.4176 29.1051 6.1264 28.8064C5.8352 28.5003 5.4656 28.2539 5.0176 28.0672C4.57707 27.8805 4.05813 27.7872 3.4608 27.7872H1.8592V34.2832ZM13.483 31.976C13.4606 31.4832 13.3 31.0763 13.0014 30.7552C12.7102 30.4267 12.292 30.2624 11.747 30.2624C11.4931 30.2624 11.2579 30.3109 11.0414 30.408C10.8248 30.4976 10.6344 30.6245 10.4702 30.7888C10.3059 30.9456 10.1752 31.1285 10.0782 31.3376C9.9811 31.5392 9.9251 31.752 9.91016 31.976H13.483ZM14.2558 32.2224C14.2558 32.2747 14.2558 32.3307 14.2558 32.3904C14.2558 32.4501 14.252 32.5136 14.2446 32.5808H9.89896C9.90643 32.8421 9.9587 33.0885 10.0558 33.32C10.1528 33.5515 10.2872 33.7531 10.459 33.9248C10.6307 34.0965 10.8323 34.2347 11.0638 34.3392C11.2952 34.4363 11.5454 34.4848 11.8142 34.4848C12.2099 34.4848 12.5496 34.3952 12.8334 34.216C13.1246 34.0293 13.3448 33.8165 13.4942 33.5776L14.0654 34.0256C13.7518 34.4213 13.4046 34.7051 13.0238 34.8768C12.6504 35.0485 12.2472 35.1344 11.8142 35.1344C11.4259 35.1344 11.0638 35.0672 10.7278 34.9328C10.3992 34.7909 10.1155 34.5968 9.87656 34.3504C9.63763 34.104 9.44723 33.8128 9.30536 33.4768C9.17096 33.1408 9.10376 32.7749 9.10376 32.3792C9.10376 31.9835 9.17096 31.6176 9.30536 31.2816C9.43976 30.9456 9.62643 30.6544 9.86536 30.408C10.1043 30.1616 10.3843 29.9712 10.7054 29.8368C11.0264 29.6949 11.3736 29.624 11.747 29.624C12.1576 29.624 12.5198 29.6949 12.8334 29.8368C13.147 29.9712 13.4083 30.1579 13.6174 30.3968C13.8264 30.6283 13.9832 30.9008 14.0878 31.2144C14.1998 31.528 14.2558 31.864 14.2558 32.2224ZM18.6827 31.0016C18.5707 30.7851 18.399 30.6096 18.1675 30.4752C17.9435 30.3333 17.6859 30.2624 17.3947 30.2624C17.2603 30.2624 17.1259 30.2773 16.9915 30.3072C16.8571 30.3371 16.7377 30.3856 16.6331 30.4528C16.5286 30.52 16.4427 30.6059 16.3755 30.7104C16.3158 30.8149 16.2859 30.9381 16.2859 31.08C16.2859 31.3264 16.3867 31.5168 16.5883 31.6512C16.7899 31.7781 17.1073 31.8864 17.5403 31.976C18.1601 32.1029 18.6155 32.2896 18.9067 32.536C19.2054 32.7749 19.3547 33.0997 19.3547 33.5104C19.3547 33.8091 19.295 34.0629 19.1755 34.272C19.0635 34.4736 18.9142 34.6416 18.7275 34.776C18.5409 34.9029 18.3281 34.9925 18.0891 35.0448C17.8577 35.1045 17.6225 35.1344 17.3835 35.1344C16.9878 35.1344 16.6033 35.0523 16.2299 34.888C15.8566 34.7237 15.5505 34.4661 15.3115 34.1152L15.9163 33.6672C16.0507 33.8987 16.2486 34.0928 16.5099 34.2496C16.7713 34.4064 17.0587 34.4848 17.3723 34.4848C17.5366 34.4848 17.6934 34.4699 17.8427 34.44C17.9921 34.4101 18.1227 34.3579 18.2347 34.2832C18.3467 34.2085 18.4363 34.1152 18.5035 34.0032C18.5707 33.8837 18.6043 33.7381 18.6043 33.5664C18.6043 33.2901 18.4699 33.0848 18.2011 32.9504C17.9398 32.8085 17.559 32.6779 17.0587 32.5584C16.9019 32.5211 16.7339 32.4763 16.5547 32.424C16.383 32.3643 16.2225 32.2821 16.0731 32.1776C15.9238 32.0656 15.8006 31.9275 15.7035 31.7632C15.6065 31.5989 15.5579 31.3936 15.5579 31.1472C15.5579 30.8784 15.6102 30.6507 15.7147 30.464C15.8193 30.2699 15.9574 30.1131 16.1291 29.9936C16.3083 29.8667 16.5099 29.7733 16.7339 29.7136C16.9579 29.6539 17.1894 29.624 17.4283 29.624C17.7942 29.624 18.1489 29.7061 18.4923 29.8704C18.8358 30.0347 19.0934 30.2661 19.2651 30.5648L18.6827 31.0016ZM24.6449 30.9568C24.518 30.7552 24.3313 30.5909 24.0849 30.464C23.846 30.3296 23.5846 30.2624 23.3009 30.2624C22.9948 30.2624 22.7185 30.3184 22.4721 30.4304C22.2257 30.5349 22.0129 30.6843 21.8337 30.8784C21.662 31.0651 21.5276 31.2891 21.4305 31.5504C21.3409 31.8043 21.2961 32.0805 21.2961 32.3792C21.2961 32.6779 21.3409 32.9541 21.4305 33.208C21.5276 33.4619 21.662 33.6859 21.8337 33.88C22.0054 34.0667 22.2145 34.216 22.4609 34.328C22.7073 34.4325 22.9836 34.4848 23.2897 34.4848C23.6257 34.4848 23.9094 34.4213 24.1409 34.2944C24.3724 34.1675 24.5628 34.0032 24.7121 33.8016L25.2833 34.2272C25.0593 34.5035 24.783 34.7237 24.4545 34.888C24.1334 35.0523 23.7452 35.1344 23.2897 35.1344C22.8641 35.1344 22.4796 35.0672 22.1361 34.9328C21.7926 34.7909 21.4977 34.5968 21.2513 34.3504C21.0124 34.104 20.8257 33.8128 20.6913 33.4768C20.5569 33.1408 20.4897 32.7749 20.4897 32.3792C20.4897 31.9835 20.5569 31.6176 20.6913 31.2816C20.8257 30.9456 21.0124 30.6544 21.2513 30.408C21.4977 30.1616 21.7926 29.9712 22.1361 29.8368C22.4796 29.6949 22.8641 29.624 23.2897 29.624C23.6406 29.624 23.9953 29.7024 24.3537 29.8592C24.7196 30.0085 25.0145 30.2325 25.2385 30.5312L24.6449 30.9568ZM29.7745 31.6176C29.7745 31.1621 29.655 30.8224 29.4161 30.5984C29.1772 30.3744 28.83 30.2624 28.3745 30.2624C28.0609 30.2624 27.7697 30.3184 27.5009 30.4304C27.2321 30.5424 27.0044 30.6917 26.8177 30.8784L26.3921 30.3744C26.6086 30.1579 26.8924 29.9787 27.2433 29.8368C27.6017 29.6949 28.0049 29.624 28.4529 29.624C28.7366 29.624 29.0017 29.6651 29.2481 29.7472C29.4945 29.8219 29.711 29.9376 29.8977 30.0944C30.0844 30.2512 30.23 30.4491 30.3345 30.688C30.439 30.9269 30.4913 31.2069 30.4913 31.528V33.824C30.4913 34.0256 30.4988 34.2347 30.5137 34.4512C30.5286 34.6677 30.551 34.8507 30.5809 35H29.8977C29.8753 34.8731 29.8566 34.7349 29.8417 34.5856C29.8268 34.4363 29.8193 34.2907 29.8193 34.1488H29.7969C29.558 34.4997 29.2854 34.7536 28.9793 34.9104C28.6806 35.0597 28.3185 35.1344 27.8929 35.1344C27.6913 35.1344 27.4822 35.1045 27.2657 35.0448C27.0566 34.9925 26.8625 34.9029 26.6833 34.776C26.5116 34.6491 26.366 34.4848 26.2465 34.2832C26.1345 34.0816 26.0785 33.8352 26.0785 33.544C26.0785 33.1408 26.1793 32.8235 26.3809 32.592C26.59 32.3531 26.8662 32.1776 27.2097 32.0656C27.5532 31.9461 27.9452 31.8715 28.3857 31.8416C28.8337 31.8043 29.2966 31.7856 29.7745 31.7856V31.6176ZM29.5505 32.3792C29.2369 32.3792 28.9196 32.3941 28.5985 32.424C28.2849 32.4464 27.9974 32.4987 27.7361 32.5808C27.4822 32.6555 27.2732 32.7675 27.1089 32.9168C26.9446 33.0661 26.8625 33.264 26.8625 33.5104C26.8625 33.6971 26.8961 33.8539 26.9633 33.9808C27.038 34.1077 27.135 34.2123 27.2545 34.2944C27.374 34.3691 27.5046 34.4251 27.6465 34.4624C27.7958 34.4923 27.9452 34.5072 28.0945 34.5072C28.3633 34.5072 28.6022 34.4624 28.8113 34.3728C29.0204 34.2757 29.1958 34.1488 29.3377 33.992C29.4796 33.8277 29.5878 33.6411 29.6625 33.432C29.7372 33.2229 29.7745 33.0027 29.7745 32.7712V32.3792H29.5505ZM32.4533 30.912C32.4533 30.7701 32.4496 30.5872 32.4421 30.3632C32.4346 30.1392 32.4234 29.9376 32.4085 29.7584H33.1365C33.1514 29.9003 33.1626 30.0571 33.1701 30.2288C33.1776 30.4005 33.1813 30.5424 33.1813 30.6544H33.2037C33.353 30.3483 33.577 30.1019 33.8757 29.9152C34.1744 29.7211 34.5104 29.624 34.8837 29.624C34.9808 29.624 35.0666 29.6277 35.1413 29.6352C35.2234 29.6427 35.3056 29.6576 35.3877 29.68L35.2869 30.3968C35.2421 30.3819 35.1674 30.3669 35.0629 30.352C34.9584 30.3371 34.8538 30.3296 34.7493 30.3296C34.5477 30.3296 34.3536 30.3669 34.1669 30.4416C33.9802 30.5163 33.816 30.6357 33.6741 30.8C33.5397 30.9568 33.4277 31.1621 33.3381 31.416C33.256 31.6624 33.2149 31.9611 33.2149 32.312V35H32.4533V30.912ZM36.5724 36.0528C36.7814 36.3216 37.0652 36.5493 37.4236 36.736C37.7894 36.9227 38.174 37.016 38.5772 37.016C38.9505 37.016 39.2678 36.96 39.5292 36.848C39.7905 36.7435 39.9996 36.5979 40.1564 36.4112C40.3206 36.2245 40.4401 36.0043 40.5148 35.7504C40.5894 35.504 40.6268 35.2389 40.6268 34.9552V33.9696H40.6044C40.4028 34.2981 40.1153 34.552 39.742 34.7312C39.3761 34.9104 39.0028 35 38.622 35C38.2113 35 37.838 34.9328 37.502 34.7984C37.1734 34.664 36.8897 34.4811 36.6508 34.2496C36.4193 34.0107 36.2364 33.7269 36.102 33.3984C35.975 33.0699 35.9116 32.7152 35.9116 32.3344C35.9116 31.9611 35.975 31.6101 36.102 31.2816C36.2364 30.9531 36.4193 30.6656 36.6508 30.4192C36.8897 30.1728 37.1734 29.9787 37.502 29.8368C37.838 29.6949 38.2113 29.624 38.622 29.624C39.0028 29.624 39.3761 29.7136 39.742 29.8928C40.1078 30.072 40.3953 30.3296 40.6044 30.6656H40.6268V29.7584H41.3884V34.9552C41.3884 35.2389 41.3473 35.5413 41.2652 35.8624C41.1905 36.1835 41.0449 36.4784 40.8284 36.7472C40.6193 37.016 40.3318 37.24 39.966 37.4192C39.6001 37.5984 39.126 37.688 38.5436 37.688C38.0582 37.688 37.5953 37.5947 37.1548 37.408C36.7142 37.2213 36.3372 36.9637 36.0236 36.6352L36.5724 36.0528ZM36.718 32.312C36.718 32.5883 36.7628 32.8496 36.8524 33.096C36.942 33.3424 37.0689 33.5589 37.2332 33.7456C37.4049 33.9323 37.614 34.0816 37.8604 34.1936C38.1068 34.2981 38.3868 34.3504 38.7004 34.3504C38.9916 34.3504 39.2604 34.3019 39.5068 34.2048C39.7532 34.1077 39.966 33.9696 40.1452 33.7904C40.3244 33.6112 40.4625 33.3984 40.5596 33.152C40.6641 32.8981 40.7164 32.6181 40.7164 32.312C40.7164 32.0357 40.6641 31.7744 40.5596 31.528C40.4625 31.2816 40.3244 31.0651 40.1452 30.8784C39.966 30.6917 39.7532 30.5424 39.5068 30.4304C39.2604 30.3184 38.9916 30.2624 38.7004 30.2624C38.3868 30.2624 38.1068 30.3184 37.8604 30.4304C37.614 30.5424 37.4049 30.6917 37.2332 30.8784C37.0689 31.0651 36.942 31.2816 36.8524 31.528C36.7628 31.7744 36.718 32.0357 36.718 32.312ZM46.6729 31.6176C46.6729 31.1621 46.5535 30.8224 46.3145 30.5984C46.0756 30.3744 45.7284 30.2624 45.2729 30.2624C44.9593 30.2624 44.6681 30.3184 44.3993 30.4304C44.1305 30.5424 43.9028 30.6917 43.7161 30.8784L43.2905 30.3744C43.5071 30.1579 43.7908 29.9787 44.1417 29.8368C44.5001 29.6949 44.9033 29.624 45.3513 29.624C45.6351 29.624 45.9001 29.6651 46.1465 29.7472C46.3929 29.8219 46.6095 29.9376 46.7961 30.0944C46.9828 30.2512 47.1284 30.4491 47.2329 30.688C47.3375 30.9269 47.3897 31.2069 47.3897 31.528V33.824C47.3897 34.0256 47.3972 34.2347 47.4121 34.4512C47.4271 34.6677 47.4495 34.8507 47.4793 35H46.7961C46.7737 34.8731 46.7551 34.7349 46.7401 34.5856C46.7252 34.4363 46.7177 34.2907 46.7177 34.1488H46.6953C46.4564 34.4997 46.1839 34.7536 45.8777 34.9104C45.5791 35.0597 45.2169 35.1344 44.7913 35.1344C44.5897 35.1344 44.3807 35.1045 44.1641 35.0448C43.9551 34.9925 43.7609 34.9029 43.5817 34.776C43.41 34.6491 43.2644 34.4848 43.1449 34.2832C43.0329 34.0816 42.9769 33.8352 42.9769 33.544C42.9769 33.1408 43.0777 32.8235 43.2793 32.592C43.4884 32.3531 43.7647 32.1776 44.1081 32.0656C44.4516 31.9461 44.8436 31.8715 45.2841 31.8416C45.7321 31.8043 46.1951 31.7856 46.6729 31.7856V31.6176ZM46.4489 32.3792C46.1353 32.3792 45.818 32.3941 45.4969 32.424C45.1833 32.4464 44.8959 32.4987 44.6345 32.5808C44.3807 32.6555 44.1716 32.7675 44.0073 32.9168C43.8431 33.0661 43.7609 33.264 43.7609 33.5104C43.7609 33.6971 43.7945 33.8539 43.8617 33.9808C43.9364 34.1077 44.0335 34.2123 44.1529 34.2944C44.2724 34.3691 44.4031 34.4251 44.5449 34.4624C44.6943 34.4923 44.8436 34.5072 44.9929 34.5072C45.2617 34.5072 45.5007 34.4624 45.7097 34.3728C45.9188 34.2757 46.0943 34.1488 46.2361 33.992C46.378 33.8277 46.4863 33.6411 46.5609 33.432C46.6356 33.2229 46.6729 33.0027 46.6729 32.7712V32.3792H46.4489ZM52.1406 31.0016C52.0286 30.7851 51.8568 30.6096 51.6254 30.4752C51.4014 30.3333 51.1438 30.2624 50.8526 30.2624C50.7182 30.2624 50.5838 30.2773 50.4494 30.3072C50.315 30.3371 50.1955 30.3856 50.091 30.4528C49.9864 30.52 49.9006 30.6059 49.8333 30.7104C49.7736 30.8149 49.7437 30.9381 49.7437 31.08C49.7437 31.3264 49.8446 31.5168 50.0462 31.6512C50.2478 31.7781 50.5651 31.8864 50.9982 31.976C51.6179 32.1029 52.0734 32.2896 52.3646 32.536C52.6632 32.7749 52.8126 33.0997 52.8126 33.5104C52.8126 33.8091 52.7528 34.0629 52.6334 34.272C52.5214 34.4736 52.372 34.6416 52.1854 34.776C51.9987 34.9029 51.7859 34.9925 51.547 35.0448C51.3155 35.1045 51.0803 35.1344 50.8414 35.1344C50.4456 35.1344 50.0611 35.0523 49.6878 34.888C49.3144 34.7237 49.0083 34.4661 48.7694 34.1152L49.3742 33.6672C49.5086 33.8987 49.7064 34.0928 49.9678 34.2496C50.2291 34.4064 50.5166 34.4848 50.8302 34.4848C50.9944 34.4848 51.1512 34.4699 51.3005 34.44C51.4499 34.4101 51.5806 34.3579 51.6926 34.2832C51.8046 34.2085 51.8942 34.1152 51.9614 34.0032C52.0286 33.8837 52.0622 33.7381 52.0622 33.5664C52.0622 33.2901 51.9278 33.0848 51.6589 32.9504C51.3976 32.8085 51.0168 32.6779 50.5166 32.5584C50.3598 32.5211 50.1918 32.4763 50.0126 32.424C49.8408 32.3643 49.6803 32.2821 49.531 32.1776C49.3816 32.0656 49.2584 31.9275 49.1614 31.7632C49.0643 31.5989 49.0158 31.3936 49.0158 31.1472C49.0158 30.8784 49.068 30.6507 49.1725 30.464C49.2771 30.2699 49.4152 30.1131 49.587 29.9936C49.7662 29.8667 49.9678 29.7733 50.1918 29.7136C50.4158 29.6539 50.6472 29.624 50.8862 29.624C51.252 29.624 51.6067 29.7061 51.9502 29.8704C52.2936 30.0347 52.5512 30.2661 52.723 30.5648L52.1406 31.0016Z" fill="#686868"/>
</svg>
