<svg width="74" height="39" viewBox="0 0 74 39" fill="none" xmlns="http://www.w3.org/2000/svg">
<g clip-path="url(#clip0)">
<path d="M29 3C27.897 3 27 3.897 27 5V19C27 20.103 27.897 21 29 21H37V19H29V5H45V13.2852L47 14.4082V5C47 3.897 46.103 3 45 3H29ZM31.002 7V9H33V7H31.002ZM41 7V9H43V7H41ZM31 11V13H33V11H31ZM40.0859 13C39.514 13.019 39 13.492 39 14.1445V22.8555C39 23.7255 39.9132 24.2764 40.6602 23.8574L48.4199 19.502C49.1939 19.067 49.1939 17.932 48.4199 17.498L40.6602 13.1426C40.4734 13.0378 40.2766 12.9937 40.0859 13ZM31 15V17H33V15H31Z" fill="#686868"/>
</g>
<path d="M1.0528 27.0704H3.2928C3.696 27.0704 4.06187 27.1152 4.3904 27.2048C4.71893 27.2869 4.99893 27.4176 5.2304 27.5968C5.46933 27.7685 5.65227 27.9888 5.7792 28.2576C5.90613 28.5189 5.9696 28.8288 5.9696 29.1872C5.9696 29.5456 5.9024 29.8592 5.768 30.128C5.64107 30.3893 5.45813 30.6096 5.2192 30.7888C4.98773 30.9605 4.704 31.0912 4.368 31.1808C4.03947 31.2704 3.6736 31.3152 3.2704 31.3152H1.8592V35H1.0528V27.0704ZM1.8592 30.632H3.2256C3.86027 30.632 4.34187 30.5088 4.6704 30.2624C4.99893 30.016 5.1632 29.6576 5.1632 29.1872C5.1632 28.6944 4.99147 28.336 4.648 28.112C4.312 27.8805 3.83787 27.7648 3.2256 27.7648H1.8592V30.632ZM6.96894 30.912C6.96894 30.7701 6.9652 30.5872 6.95774 30.3632C6.95027 30.1392 6.93907 29.9376 6.92414 29.7584H7.65214C7.66707 29.9003 7.67827 30.0571 7.68574 30.2288C7.6932 30.4005 7.69694 30.5424 7.69694 30.6544H7.71934C7.86867 30.3483 8.09267 30.1019 8.39134 29.9152C8.69 29.7211 9.026 29.624 9.39934 29.624C9.4964 29.624 9.58227 29.6277 9.65694 29.6352C9.73907 29.6427 9.8212 29.6576 9.90334 29.68L9.80254 30.3968C9.75774 30.3819 9.68307 30.3669 9.57854 30.352C9.474 30.3371 9.36947 30.3296 9.26494 30.3296C9.06334 30.3296 8.8692 30.3669 8.68254 30.4416C8.49587 30.5163 8.3316 30.6357 8.18974 30.8C8.05534 30.9568 7.94334 31.1621 7.85374 31.416C7.7716 31.6624 7.73054 31.9611 7.73054 32.312V35H6.96894V30.912ZM16.016 32.3792C16.016 32.7749 15.9451 33.1408 15.8032 33.4768C15.6688 33.8128 15.4784 34.104 15.232 34.3504C14.9856 34.5968 14.6907 34.7909 14.3472 34.9328C14.0037 35.0672 13.6267 35.1344 13.216 35.1344C12.8128 35.1344 12.4395 35.0672 12.096 34.9328C11.7525 34.7909 11.4576 34.5968 11.2112 34.3504C10.9648 34.104 10.7707 33.8128 10.6288 33.4768C10.4944 33.1408 10.4272 32.7749 10.4272 32.3792C10.4272 31.9835 10.4944 31.6176 10.6288 31.2816C10.7707 30.9456 10.9648 30.6544 11.2112 30.408C11.4576 30.1616 11.7525 29.9712 12.096 29.8368C12.4395 29.6949 12.8128 29.624 13.216 29.624C13.6267 29.624 14.0037 29.6949 14.3472 29.8368C14.6907 29.9712 14.9856 30.1616 15.232 30.408C15.4784 30.6544 15.6688 30.9456 15.8032 31.2816C15.9451 31.6176 16.016 31.9835 16.016 32.3792ZM15.2096 32.3792C15.2096 32.088 15.1611 31.8155 15.064 31.5616C14.9744 31.3003 14.8437 31.0763 14.672 30.8896C14.5003 30.6955 14.2912 30.5424 14.0448 30.4304C13.7984 30.3184 13.5221 30.2624 13.216 30.2624C12.9099 30.2624 12.6336 30.3184 12.3872 30.4304C12.1483 30.5424 11.9429 30.6955 11.7712 30.8896C11.5995 31.0763 11.4651 31.3003 11.368 31.5616C11.2784 31.8155 11.2336 32.088 11.2336 32.3792C11.2336 32.6704 11.2784 32.9467 11.368 33.208C11.4651 33.4619 11.5995 33.6859 11.7712 33.88C11.9429 34.0667 12.1483 34.216 12.3872 34.328C12.6336 34.4325 12.9099 34.4848 13.216 34.4848C13.5221 34.4848 13.7984 34.4325 14.0448 34.328C14.2912 34.216 14.5003 34.0667 14.672 33.88C14.8437 33.6859 14.9744 33.4619 15.064 33.208C15.1611 32.9467 15.2096 32.6704 15.2096 32.3792ZM13.4176 28.6832H12.7568L13.8768 27.0704H14.896L13.4176 28.6832ZM18.8212 32.2896L16.8836 29.7584H17.858L19.2916 31.752L20.7252 29.7584H21.6436L19.7396 32.256L21.8228 35H20.8372L19.2804 32.816L17.6788 35H16.7604L18.8212 32.2896ZM23.7871 35H23.0255V29.7584H23.7871V35ZM23.9439 27.7424C23.9439 27.8992 23.8879 28.0299 23.7759 28.1344C23.6639 28.2315 23.5407 28.28 23.4063 28.28C23.2719 28.28 23.1487 28.2315 23.0367 28.1344C22.9247 28.0299 22.8687 27.8992 22.8687 27.7424C22.8687 27.5856 22.9247 27.4587 23.0367 27.3616C23.1487 27.2571 23.2719 27.2048 23.4063 27.2048C23.5407 27.2048 23.6639 27.2571 23.7759 27.3616C23.8879 27.4587 23.9439 27.5856 23.9439 27.7424ZM26.5646 30.6544C26.714 30.3483 26.9417 30.1019 27.2478 29.9152C27.5614 29.7211 27.9086 29.624 28.2894 29.624C28.4313 29.624 28.5769 29.6389 28.7262 29.6688C28.883 29.6987 29.0324 29.7584 29.1742 29.848C29.3236 29.9301 29.458 30.0421 29.5774 30.184C29.7044 30.3259 29.8126 30.5088 29.9022 30.7328C30.0814 30.3744 30.3241 30.1019 30.6302 29.9152C30.9438 29.7211 31.3134 29.624 31.739 29.624C32.4036 29.624 32.9001 29.8219 33.2286 30.2176C33.5646 30.6133 33.7327 31.136 33.7327 31.7856V35H32.971V32.0992C32.971 31.5467 32.8665 31.1024 32.6574 30.7664C32.4558 30.4304 32.1086 30.2624 31.6158 30.2624C31.3396 30.2624 31.1044 30.3184 30.9102 30.4304C30.7236 30.5424 30.5705 30.6917 30.451 30.8784C30.339 31.0576 30.2569 31.2629 30.2046 31.4944C30.1524 31.7259 30.1262 31.9648 30.1262 32.2112V35H29.3646V31.9424C29.3646 31.6885 29.346 31.4571 29.3086 31.248C29.2713 31.0389 29.2041 30.8635 29.107 30.7216C29.0174 30.5723 28.8905 30.4603 28.7262 30.3856C28.562 30.3035 28.3529 30.2624 28.099 30.2624C27.9198 30.2624 27.7369 30.3035 27.5502 30.3856C27.371 30.4677 27.2068 30.5947 27.0574 30.7664C26.9156 30.9307 26.7998 31.1435 26.7102 31.4048C26.6206 31.6587 26.5758 31.9611 26.5758 32.312V35H25.8142V30.912C25.8142 30.7701 25.8105 30.5872 25.803 30.3632C25.7956 30.1392 25.7844 29.9376 25.7694 29.7584H26.4974C26.5124 29.9003 26.5236 30.0571 26.531 30.2288C26.5385 30.4005 26.5422 30.5424 26.5422 30.6544H26.5646ZM39.0057 31.6176C39.0057 31.1621 38.8863 30.8224 38.6473 30.5984C38.4084 30.3744 38.0612 30.2624 37.6057 30.2624C37.2921 30.2624 37.0009 30.3184 36.7321 30.4304C36.4633 30.5424 36.2356 30.6917 36.0489 30.8784L35.6233 30.3744C35.8399 30.1579 36.1236 29.9787 36.4745 29.8368C36.8329 29.6949 37.2361 29.624 37.6841 29.624C37.9679 29.624 38.2329 29.6651 38.4793 29.7472C38.7257 29.8219 38.9423 29.9376 39.1289 30.0944C39.3156 30.2512 39.4612 30.4491 39.5657 30.688C39.6703 30.9269 39.7225 31.2069 39.7225 31.528V33.824C39.7225 34.0256 39.73 34.2347 39.7449 34.4512C39.7599 34.6677 39.7823 34.8507 39.8121 35H39.1289C39.1065 34.8731 39.0879 34.7349 39.0729 34.5856C39.058 34.4363 39.0505 34.2907 39.0505 34.1488H39.0281C38.7892 34.4997 38.5167 34.7536 38.2105 34.9104C37.9119 35.0597 37.5497 35.1344 37.1241 35.1344C36.9225 35.1344 36.7135 35.1045 36.4969 35.0448C36.2879 34.9925 36.0937 34.9029 35.9145 34.776C35.7428 34.6491 35.5972 34.4848 35.4777 34.2832C35.3657 34.0816 35.3097 33.8352 35.3097 33.544C35.3097 33.1408 35.4105 32.8235 35.6121 32.592C35.8212 32.3531 36.0975 32.1776 36.4409 32.0656C36.7844 31.9461 37.1764 31.8715 37.6169 31.8416C38.0649 31.8043 38.5279 31.7856 39.0057 31.7856V31.6176ZM38.7817 32.3792C38.4681 32.3792 38.1508 32.3941 37.8297 32.424C37.5161 32.4464 37.2287 32.4987 36.9673 32.5808C36.7135 32.6555 36.5044 32.7675 36.3401 32.9168C36.1759 33.0661 36.0937 33.264 36.0937 33.5104C36.0937 33.6971 36.1273 33.8539 36.1945 33.9808C36.2692 34.1077 36.3663 34.2123 36.4857 34.2944C36.6052 34.3691 36.7359 34.4251 36.8777 34.4624C37.0271 34.4923 37.1764 34.5072 37.3257 34.5072C37.5945 34.5072 37.8335 34.4624 38.0425 34.3728C38.2516 34.2757 38.4271 34.1488 38.5689 33.992C38.7108 33.8277 38.8191 33.6411 38.8937 33.432C38.9684 33.2229 39.0057 33.0027 39.0057 32.7712V32.3792H38.7817ZM42.435 30.6544C42.5843 30.3483 42.812 30.1019 43.1182 29.9152C43.4318 29.7211 43.779 29.624 44.1598 29.624C44.3016 29.624 44.4472 29.6389 44.5966 29.6688C44.7534 29.6987 44.9027 29.7584 45.0446 29.848C45.1939 29.9301 45.3283 30.0421 45.4478 30.184C45.5747 30.3259 45.683 30.5088 45.7726 30.7328C45.9518 30.3744 46.1944 30.1019 46.5006 29.9152C46.8142 29.7211 47.1838 29.624 47.6094 29.624C48.2739 29.624 48.7704 29.8219 49.099 30.2176C49.435 30.6133 49.603 31.136 49.603 31.7856V35H48.8414V32.0992C48.8414 31.5467 48.7368 31.1024 48.5278 30.7664C48.3262 30.4304 47.979 30.2624 47.4862 30.2624C47.2099 30.2624 46.9747 30.3184 46.7806 30.4304C46.5939 30.5424 46.4408 30.6917 46.3214 30.8784C46.2094 31.0576 46.1272 31.2629 46.075 31.4944C46.0227 31.7259 45.9966 31.9648 45.9966 32.2112V35H45.235V31.9424C45.235 31.6885 45.2163 31.4571 45.179 31.248C45.1416 31.0389 45.0744 30.8635 44.9774 30.7216C44.8878 30.5723 44.7608 30.4603 44.5966 30.3856C44.4323 30.3035 44.2232 30.2624 43.9694 30.2624C43.7902 30.2624 43.6072 30.3035 43.4206 30.3856C43.2414 30.4677 43.0771 30.5947 42.9278 30.7664C42.7859 30.9307 42.6702 31.1435 42.5806 31.4048C42.491 31.6587 42.4462 31.9611 42.4462 32.312V35H41.6846V30.912C41.6846 30.7701 41.6808 30.5872 41.6734 30.3632C41.6659 30.1392 41.6547 29.9376 41.6398 29.7584H42.3678C42.3827 29.9003 42.3939 30.0571 42.4014 30.2288C42.4088 30.4005 42.4126 30.5424 42.4126 30.6544H42.435ZM55.5705 31.976C55.5481 31.4832 55.3875 31.0763 55.0889 30.7552C54.7977 30.4267 54.3795 30.2624 53.8345 30.2624C53.5806 30.2624 53.3454 30.3109 53.1289 30.408C52.9123 30.4976 52.7219 30.6245 52.5577 30.7888C52.3934 30.9456 52.2627 31.1285 52.1657 31.3376C52.0686 31.5392 52.0126 31.752 51.9977 31.976H55.5705ZM56.3433 32.2224C56.3433 32.2747 56.3433 32.3307 56.3433 32.3904C56.3433 32.4501 56.3395 32.5136 56.3321 32.5808H51.9865C51.9939 32.8421 52.0462 33.0885 52.1433 33.32C52.2403 33.5515 52.3747 33.7531 52.5465 33.9248C52.7182 34.0965 52.9198 34.2347 53.1513 34.3392C53.3827 34.4363 53.6329 34.4848 53.9017 34.4848C54.2974 34.4848 54.6371 34.3952 54.9209 34.216C55.2121 34.0293 55.4323 33.8165 55.5817 33.5776L56.1529 34.0256C55.8393 34.4213 55.4921 34.7051 55.1113 34.8768C54.7379 35.0485 54.3347 35.1344 53.9017 35.1344C53.5134 35.1344 53.1513 35.0672 52.8153 34.9328C52.4867 34.7909 52.203 34.5968 51.9641 34.3504C51.7251 34.104 51.5347 33.8128 51.3929 33.4768C51.2585 33.1408 51.1913 32.7749 51.1913 32.3792C51.1913 31.9835 51.2585 31.6176 51.3929 31.2816C51.5273 30.9456 51.7139 30.6544 51.9529 30.408C52.1918 30.1616 52.4718 29.9712 52.7929 29.8368C53.1139 29.6949 53.4611 29.624 53.8345 29.624C54.2451 29.624 54.6073 29.6949 54.9209 29.8368C55.2345 29.9712 55.4958 30.1579 55.7049 30.3968C55.9139 30.6283 56.0707 30.9008 56.1753 31.2144C56.2873 31.528 56.3433 31.864 56.3433 32.2224ZM58.6646 29.7584C58.6796 29.9003 58.6908 30.0571 58.6982 30.2288C58.7057 30.4005 58.7094 30.5424 58.7094 30.6544H58.7318C58.8812 30.3483 59.1238 30.1019 59.4598 29.9152C59.7958 29.7211 60.1505 29.624 60.5238 29.624C61.1884 29.624 61.6849 29.8219 62.0134 30.2176C62.3494 30.6133 62.5174 31.136 62.5174 31.7856V35H61.7558V32.0992C61.7558 31.8229 61.7334 31.5728 61.6886 31.3488C61.6438 31.1248 61.5654 30.9344 61.4534 30.7776C61.3489 30.6133 61.2033 30.4864 61.0166 30.3968C60.8374 30.3072 60.6097 30.2624 60.3334 30.2624C60.1318 30.2624 59.934 30.3035 59.7398 30.3856C59.5532 30.4677 59.3852 30.5947 59.2358 30.7664C59.0865 30.9307 58.967 31.1435 58.8774 31.4048C58.7878 31.6587 58.743 31.9611 58.743 32.312V35H57.9814V30.912C57.9814 30.7701 57.9777 30.5872 57.9702 30.3632C57.9628 30.1392 57.9516 29.9376 57.9366 29.7584H58.6646ZM66.8524 30.3968H65.374V33.4544C65.374 33.6485 65.3927 33.8091 65.43 33.936C65.4674 34.0629 65.5196 34.1637 65.5868 34.2384C65.6615 34.3056 65.7474 34.3541 65.8444 34.384C65.9415 34.4064 66.046 34.4176 66.158 34.4176C66.2626 34.4176 66.3708 34.4027 66.4828 34.3728C66.6023 34.3429 66.7143 34.3019 66.8188 34.2496L66.8524 34.9104C66.718 34.9627 66.5762 35 66.4268 35.0224C66.285 35.0523 66.1282 35.0672 65.9564 35.0672C65.8146 35.0672 65.6652 35.0485 65.5084 35.0112C65.3516 34.9739 65.206 34.9029 65.0716 34.7984C64.9372 34.6939 64.8252 34.552 64.7356 34.3728C64.6535 34.1936 64.6124 33.9584 64.6124 33.6672V30.3968H63.526V29.7584H64.6124V28.28H65.374V29.7584H66.8524V30.3968ZM72.0423 31.976C72.0199 31.4832 71.8594 31.0763 71.5607 30.7552C71.2695 30.4267 70.8514 30.2624 70.3063 30.2624C70.0525 30.2624 69.8173 30.3109 69.6007 30.408C69.3842 30.4976 69.1938 30.6245 69.0295 30.7888C68.8653 30.9456 68.7346 31.1285 68.6375 31.3376C68.5405 31.5392 68.4845 31.752 68.4695 31.976H72.0423ZM72.8151 32.2224C72.8151 32.2747 72.8151 32.3307 72.8151 32.3904C72.8151 32.4501 72.8114 32.5136 72.8039 32.5808H68.4583C68.4658 32.8421 68.5181 33.0885 68.6151 33.32C68.7122 33.5515 68.8466 33.7531 69.0183 33.9248C69.1901 34.0965 69.3917 34.2347 69.6231 34.3392C69.8546 34.4363 70.1047 34.4848 70.3735 34.4848C70.7693 34.4848 71.109 34.3952 71.3927 34.216C71.6839 34.0293 71.9042 33.8165 72.0535 33.5776L72.6247 34.0256C72.3111 34.4213 71.9639 34.7051 71.5831 34.8768C71.2098 35.0485 70.8066 35.1344 70.3735 35.1344C69.9853 35.1344 69.6231 35.0672 69.2871 34.9328C68.9586 34.7909 68.6749 34.5968 68.4359 34.3504C68.197 34.104 68.0066 33.8128 67.8647 33.4768C67.7303 33.1408 67.6631 32.7749 67.6631 32.3792C67.6631 31.9835 67.7303 31.6176 67.8647 31.2816C67.9991 30.9456 68.1858 30.6544 68.4247 30.408C68.6637 30.1616 68.9437 29.9712 69.2647 29.8368C69.5858 29.6949 69.933 29.624 70.3063 29.624C70.717 29.624 71.0791 29.6949 71.3927 29.8368C71.7063 29.9712 71.9677 30.1579 72.1767 30.3968C72.3858 30.6283 72.5426 30.9008 72.6471 31.2144C72.7591 31.528 72.8151 31.864 72.8151 32.2224Z" fill="#686868"/>
<defs>
<clipPath id="clip0">
<rect width="24" height="24" fill="white" transform="translate(25)"/>
</clipPath>
</defs>
</svg>
