<svg width="35" height="39" viewBox="0 0 35 39" fill="none" xmlns="http://www.w3.org/2000/svg">
<path d="M14.5 2C10.6459 2 7.5 5.14585 7.5 9C7.5 12.8541 10.6459 16 14.5 16C16.248 16 17.845 15.348 19.0742 14.2812L19.5 14.707V16L25.5 22L27.5 20L21.5 14H20.207L19.7812 13.5742C20.848 12.345 21.5 10.748 21.5 9C21.5 5.14585 18.3541 2 14.5 2ZM14.5 4C17.2733 4 19.5 6.22673 19.5 9C19.5 11.7733 17.2733 14 14.5 14C11.7267 14 9.5 11.7733 9.5 9C9.5 6.22673 11.7267 4 14.5 4Z" fill="#686868"/>
<path d="M1.0528 27.0704H3.416C3.71467 27.0704 4.01707 27.104 4.3232 27.1712C4.62933 27.2309 4.90187 27.3392 5.1408 27.496C5.3872 27.6453 5.58507 27.8507 5.7344 28.112C5.8912 28.3733 5.9696 28.7019 5.9696 29.0976C5.9696 29.5157 5.84267 29.8816 5.5888 30.1952C5.33493 30.5013 4.9952 30.7029 4.5696 30.8V30.8224C5.0848 30.8821 5.5104 31.0837 5.8464 31.4272C6.18987 31.7632 6.3616 32.2224 6.3616 32.8048C6.3616 33.1333 6.29067 33.4357 6.1488 33.712C6.0144 33.9808 5.82027 34.2123 5.5664 34.4064C5.31253 34.5931 5.00267 34.7387 4.6368 34.8432C4.27093 34.9477 3.86027 35 3.4048 35H1.0528V27.0704ZM1.8592 30.5424H3.4832C3.67733 30.5424 3.87147 30.52 4.0656 30.4752C4.2672 30.4304 4.45013 30.3557 4.6144 30.2512C4.77867 30.1392 4.90933 29.9936 5.0064 29.8144C5.11093 29.6352 5.1632 29.4149 5.1632 29.1536C5.1632 28.8997 5.11093 28.6869 5.0064 28.5152C4.90933 28.336 4.77493 28.1904 4.6032 28.0784C4.43147 27.9664 4.22987 27.888 3.9984 27.8432C3.76693 27.7909 3.52053 27.7648 3.2592 27.7648H1.8592V30.5424ZM1.8592 34.3056H3.36C3.6512 34.3056 3.92747 34.2795 4.1888 34.2272C4.4576 34.1675 4.68907 34.0779 4.8832 33.9584C5.0848 33.8315 5.24533 33.6709 5.3648 33.4768C5.48427 33.2752 5.544 33.0363 5.544 32.76C5.544 32.2373 5.3648 31.8491 5.0064 31.5952C4.65547 31.3339 4.1552 31.2032 3.5056 31.2032H1.8592V34.3056ZM11.9363 35C11.9214 34.8581 11.9102 34.7013 11.9027 34.5296C11.8952 34.3579 11.8915 34.216 11.8915 34.104H11.8691C11.7198 34.4101 11.4771 34.6603 11.1411 34.8544C10.8051 35.0411 10.4504 35.1344 10.0771 35.1344C9.41258 35.1344 8.91231 34.9365 8.57631 34.5408C8.24778 34.1451 8.08351 33.6224 8.08351 32.9728V29.7584H8.84511V32.6592C8.84511 32.9355 8.86751 33.1856 8.91231 33.4096C8.95711 33.6336 9.03178 33.8277 9.13631 33.992C9.24831 34.1488 9.39391 34.272 9.57311 34.3616C9.75978 34.4512 9.99125 34.496 10.2675 34.496C10.4691 34.496 10.6632 34.4549 10.8499 34.3728C11.044 34.2907 11.2158 34.1675 11.3651 34.0032C11.5144 33.8315 11.6339 33.6187 11.7235 33.3648C11.8131 33.1035 11.8579 32.7973 11.8579 32.4464V29.7584H12.6195V33.8464C12.6195 33.9883 12.6232 34.1712 12.6307 34.3952C12.6382 34.6192 12.6494 34.8208 12.6643 35H11.9363ZM17.4249 31.0016C17.3129 30.7851 17.1412 30.6096 16.9097 30.4752C16.6857 30.3333 16.4281 30.2624 16.1369 30.2624C16.0025 30.2624 15.8681 30.2773 15.7337 30.3072C15.5993 30.3371 15.4799 30.3856 15.3753 30.4528C15.2708 30.52 15.1849 30.6059 15.1177 30.7104C15.058 30.8149 15.0281 30.9381 15.0281 31.08C15.0281 31.3264 15.1289 31.5168 15.3305 31.6512C15.5321 31.7781 15.8495 31.8864 16.2825 31.976C16.9023 32.1029 17.3577 32.2896 17.6489 32.536C17.9476 32.7749 18.0969 33.0997 18.0969 33.5104C18.0969 33.8091 18.0372 34.0629 17.9177 34.272C17.8057 34.4736 17.6564 34.6416 17.4697 34.776C17.2831 34.9029 17.0703 34.9925 16.8313 35.0448C16.5999 35.1045 16.3647 35.1344 16.1257 35.1344C15.73 35.1344 15.3455 35.0523 14.9721 34.888C14.5988 34.7237 14.2927 34.4661 14.0537 34.1152L14.6585 33.6672C14.7929 33.8987 14.9908 34.0928 15.2521 34.2496C15.5135 34.4064 15.8009 34.4848 16.1145 34.4848C16.2788 34.4848 16.4356 34.4699 16.5849 34.44C16.7343 34.4101 16.8649 34.3579 16.9769 34.2832C17.0889 34.2085 17.1785 34.1152 17.2457 34.0032C17.3129 33.8837 17.3465 33.7381 17.3465 33.5664C17.3465 33.2901 17.2121 33.0848 16.9433 32.9504C16.682 32.8085 16.3012 32.6779 15.8009 32.5584C15.6441 32.5211 15.4761 32.4763 15.2969 32.424C15.1252 32.3643 14.9647 32.2821 14.8153 32.1776C14.666 32.0656 14.5428 31.9275 14.4457 31.7632C14.3487 31.5989 14.3001 31.3936 14.3001 31.1472C14.3001 30.8784 14.3524 30.6507 14.4569 30.464C14.5615 30.2699 14.6996 30.1131 14.8713 29.9936C15.0505 29.8667 15.2521 29.7733 15.4761 29.7136C15.7001 29.6539 15.9316 29.624 16.1705 29.624C16.5364 29.624 16.8911 29.7061 17.2345 29.8704C17.578 30.0347 17.8356 30.2661 18.0073 30.5648L17.4249 31.0016ZM23.3871 30.9568C23.2602 30.7552 23.0735 30.5909 22.8271 30.464C22.5882 30.3296 22.3268 30.2624 22.0431 30.2624C21.737 30.2624 21.4607 30.3184 21.2143 30.4304C20.9679 30.5349 20.7551 30.6843 20.5759 30.8784C20.4042 31.0651 20.2698 31.2891 20.1727 31.5504C20.0831 31.8043 20.0383 32.0805 20.0383 32.3792C20.0383 32.6779 20.0831 32.9541 20.1727 33.208C20.2698 33.4619 20.4042 33.6859 20.5759 33.88C20.7476 34.0667 20.9567 34.216 21.2031 34.328C21.4495 34.4325 21.7258 34.4848 22.0319 34.4848C22.3679 34.4848 22.6516 34.4213 22.8831 34.2944C23.1146 34.1675 23.305 34.0032 23.4543 33.8016L24.0255 34.2272C23.8015 34.5035 23.5252 34.7237 23.1967 34.888C22.8756 35.0523 22.4874 35.1344 22.0319 35.1344C21.6063 35.1344 21.2218 35.0672 20.8783 34.9328C20.5348 34.7909 20.2399 34.5968 19.9935 34.3504C19.7546 34.104 19.5679 33.8128 19.4335 33.4768C19.2991 33.1408 19.2319 32.7749 19.2319 32.3792C19.2319 31.9835 19.2991 31.6176 19.4335 31.2816C19.5679 30.9456 19.7546 30.6544 19.9935 30.408C20.2399 30.1616 20.5348 29.9712 20.8783 29.8368C21.2218 29.6949 21.6063 29.624 22.0319 29.624C22.3828 29.624 22.7375 29.7024 23.0959 29.8592C23.4618 30.0085 23.7567 30.2325 23.9807 30.5312L23.3871 30.9568ZM28.5167 31.6176C28.5167 31.1621 28.3972 30.8224 28.1583 30.5984C27.9194 30.3744 27.5722 30.2624 27.1167 30.2624C26.8031 30.2624 26.5119 30.3184 26.2431 30.4304C25.9743 30.5424 25.7466 30.6917 25.5599 30.8784L25.1343 30.3744C25.3508 30.1579 25.6346 29.9787 25.9855 29.8368C26.3439 29.6949 26.7471 29.624 27.1951 29.624C27.4788 29.624 27.7439 29.6651 27.9903 29.7472C28.2367 29.8219 28.4532 29.9376 28.6399 30.0944C28.8266 30.2512 28.9722 30.4491 29.0767 30.688C29.1812 30.9269 29.2335 31.2069 29.2335 31.528V33.824C29.2335 34.0256 29.241 34.2347 29.2559 34.4512C29.2708 34.6677 29.2932 34.8507 29.3231 35H28.6399C28.6175 34.8731 28.5988 34.7349 28.5839 34.5856C28.569 34.4363 28.5615 34.2907 28.5615 34.1488H28.5391C28.3002 34.4997 28.0276 34.7536 27.7215 34.9104C27.4228 35.0597 27.0607 35.1344 26.6351 35.1344C26.4335 35.1344 26.2244 35.1045 26.0079 35.0448C25.7988 34.9925 25.6047 34.9029 25.4255 34.776C25.2538 34.6491 25.1082 34.4848 24.9887 34.2832C24.8767 34.0816 24.8207 33.8352 24.8207 33.544C24.8207 33.1408 24.9215 32.8235 25.1231 32.592C25.3322 32.3531 25.6084 32.1776 25.9519 32.0656C26.2954 31.9461 26.6874 31.8715 27.1279 31.8416C27.5759 31.8043 28.0388 31.7856 28.5167 31.7856V31.6176ZM28.2927 32.3792C27.9791 32.3792 27.6618 32.3941 27.3407 32.424C27.0271 32.4464 26.7396 32.4987 26.4783 32.5808C26.2244 32.6555 26.0154 32.7675 25.8511 32.9168C25.6868 33.0661 25.6047 33.264 25.6047 33.5104C25.6047 33.6971 25.6383 33.8539 25.7055 33.9808C25.7802 34.1077 25.8772 34.2123 25.9967 34.2944C26.1162 34.3691 26.2468 34.4251 26.3887 34.4624C26.538 34.4923 26.6874 34.5072 26.8367 34.5072C27.1055 34.5072 27.3444 34.4624 27.5535 34.3728C27.7626 34.2757 27.938 34.1488 28.0799 33.992C28.2218 33.8277 28.33 33.6411 28.4047 33.432C28.4794 33.2229 28.5167 33.0027 28.5167 32.7712V32.3792H28.2927ZM31.1955 30.912C31.1955 30.7701 31.1918 30.5872 31.1843 30.3632C31.1768 30.1392 31.1656 29.9376 31.1507 29.7584H31.8787C31.8936 29.9003 31.9048 30.0571 31.9123 30.2288C31.9198 30.4005 31.9235 30.5424 31.9235 30.6544H31.9459C32.0952 30.3483 32.3192 30.1019 32.6179 29.9152C32.9166 29.7211 33.2526 29.624 33.6259 29.624C33.723 29.624 33.8088 29.6277 33.8835 29.6352C33.9656 29.6427 34.0478 29.6576 34.1299 29.68L34.0291 30.3968C33.9843 30.3819 33.9096 30.3669 33.8051 30.352C33.7006 30.3371 33.596 30.3296 33.4915 30.3296C33.2899 30.3296 33.0958 30.3669 32.9091 30.4416C32.7224 30.5163 32.5582 30.6357 32.4163 30.8C32.2819 30.9568 32.1699 31.1621 32.0803 31.416C31.9982 31.6624 31.9571 31.9611 31.9571 32.312V35H31.1955V30.912Z" fill="#686868"/>
</svg>
